# xmcd CD database file
#
# Track frame offsets:
#	150
#	9530
#	20434
#	30764
#	44783
#	56444
#	70352
#	84081
#	97793
#	108497
#	118324
#	128658
#	140489
#	152453
#	164513
#	175425
#
# Disc length: 2554 seconds
#
# Revision: 0
# Processed by: cddbd v1.5.2PL0 Copyright (c) Steve Scherf et al.
# Submitted via: CDex 1.51
#
DISCID=ca09f810
DTITLE=Pat Boone - Pat Boone Selecao
DYEAR=2009
DGENRE=Jazz
TTITLE0=A wonderful time up there-Pat Boone
TTITLE1=Ain t that a shame-Pat Boone
TTITLE2=Don t forbid me-Pat Boone
TTITLE3=Friendly persuasion-Pat Boone
TTITLE4=I almost lost my mind-Pat Boone
TTITLE5=I believe in music-Pat Boone
TTITLE6=I Il be home-Pat Boone
TTITLE7=Indiana girl-Pat Boone
TTITLE8=Love light comes a shining-Pat Boone
TTITLE9=Mr Blue-Pat Boone
TTITLE10=Oklahoma Sunshine-Pat Boone
TTITLE11=Poetry in motion-Pat Boone
TTITLE12=Speedy Gonzales-Pat Boone
TTITLE13=Texas woman-Pat Boone
TTITLE14=Tutti frutti-Pat Boone
TTITLE15=Wont be home-Pat Boone
EXTD=YEAR: 2009
EXTT0=
EXTT1=
EXTT2=
EXTT3=
EXTT4=
EXTT5=
EXTT6=
EXTT7=
EXTT8=
EXTT9=
EXTT10=
EXTT11=
EXTT12=
EXTT13=
EXTT14=
EXTT15=
PLAYORDER=
